<?xml version="1.0" standalone="no"?>
<!DOCTYPE svg PUBLIC "-//W3C//DTD SVG 20010904//EN"
 "http://www.w3.org/TR/2001/REC-SVG-20010904/DTD/svg10.dtd">
<svg version="1.0" xmlns="http://www.w3.org/2000/svg"
 width="260.000000pt" height="260.000000pt" viewBox="0 0 260.000000 260.000000"
 preserveAspectRatio="xMidYMid meet">
<metadata>
Created by potrace 1.11, written by Peter Selinger 2001-2013
</metadata>
<g transform="translate(0.000000,260.000000) scale(0.100000,-0.100000)"
fill="#000000" stroke="none">
<path d="M1203 2455 c-15 -11 -29 -19 -30 -17 -9 8 -23 0 -17 -10 4 -7 3 -8
-4 -4 -6 4 -40 -7 -76 -24 -36 -16 -70 -30 -76 -30 -5 0 -10 -4 -10 -10 0 -5
-7 -7 -15 -4 -8 4 -15 1 -15 -6 0 -6 -4 -9 -9 -6 -5 3 -14 -1 -21 -9 -7 -8
-11 -15 -8 -15 2 0 -37 -82 -87 -182 -89 -181 -90 -183 -133 -199 -23 -8 -39
-19 -35 -24 4 -4 3 -5 -4 -1 -7 4 -35 -3 -62 -14 -48 -21 -50 -24 -73 -93 -12
-40 -23 -76 -23 -82 0 -5 -4 -13 -8 -16 -5 -3 -9 -12 -11 -20 -1 -8 -12 -41
-24 -73 -13 -33 -21 -65 -18 -73 3 -8 2 -12 -2 -9 -4 2 -25 -46 -46 -107 -22
-62 -91 -251 -153 -422 -63 -171 -115 -319 -115 -330 0 -15 99 -289 177 -487
7 -17 57 -18 867 -18 l861 0 66 57 c90 79 147 130 203 183 l47 45 6 105 c5
105 12 205 20 290 2 25 7 95 11 155 3 61 7 112 7 115 2 5 -161 320 -273 528
-5 9 -19 40 -32 67 -13 28 -25 52 -28 55 -3 3 -6 10 -7 16 -2 9 -74 166 -126
274 -12 25 -26 48 -30 51 -5 3 -7 8 -6 10 2 2 -7 30 -21 62 -19 43 -29 56 -42
53 -9 -2 -18 0 -20 6 -2 5 -26 10 -55 11 -28 1 -49 5 -46 10 2 4 -5 8 -16 8
-12 1 -24 2 -28 4 -5 1 -26 5 -48 10 -22 4 -49 10 -60 12 -11 3 -25 5 -32 5
-7 1 -10 4 -8 7 7 12 -240 170 -262 169 -12 -1 -34 -11 -50 -23z m-42 -188
c-10 -9 -11 -8 -5 6 3 10 9 15 12 12 3 -3 0 -11 -7 -18z"/>
</g>
</svg>
